<svg width="133" height="13" viewBox="0 0 133 13" fill="none" xmlns="http://www.w3.org/2000/svg">
<path d="M11.2784 4.4375H8.78977C8.74432 4.11553 8.65152 3.82955 8.51136 3.57955C8.37121 3.32576 8.19129 3.10985 7.97159 2.93182C7.75189 2.75379 7.49811 2.61742 7.21023 2.52273C6.92614 2.42803 6.61742 2.38068 6.28409 2.38068C5.68182 2.38068 5.1572 2.5303 4.71023 2.82955C4.26326 3.125 3.91667 3.55682 3.67045 4.125C3.42424 4.68939 3.30114 5.375 3.30114 6.18182C3.30114 7.01136 3.42424 7.70833 3.67045 8.27273C3.92045 8.83712 4.26894 9.26326 4.71591 9.55114C5.16288 9.83902 5.67992 9.98295 6.26705 9.98295C6.59659 9.98295 6.90152 9.93939 7.18182 9.85227C7.46591 9.76515 7.7178 9.63826 7.9375 9.47159C8.1572 9.30114 8.33902 9.0947 8.48295 8.85227C8.63068 8.60985 8.73295 8.33333 8.78977 8.02273L11.2784 8.03409C11.214 8.56818 11.053 9.08333 10.7955 9.57955C10.5417 10.072 10.1989 10.5133 9.76705 10.9034C9.33902 11.2898 8.82765 11.5966 8.23295 11.8239C7.64205 12.0473 6.97348 12.1591 6.22727 12.1591C5.18939 12.1591 4.26136 11.9242 3.44318 11.4545C2.62879 10.9848 1.98485 10.3049 1.51136 9.41477C1.04167 8.52462 0.806818 7.44697 0.806818 6.18182C0.806818 4.91288 1.04545 3.83333 1.52273 2.94318C2 2.05303 2.64773 1.375 3.46591 0.909091C4.28409 0.439394 5.20455 0.204545 6.22727 0.204545C6.90152 0.204545 7.52652 0.299242 8.10227 0.488636C8.68182 0.67803 9.19508 0.954545 9.64205 1.31818C10.089 1.67803 10.4527 2.11932 10.733 2.64205C11.017 3.16477 11.1989 3.76326 11.2784 4.4375ZM14.6756 12H12.0392L16.0563 0.363636H19.2267L23.2381 12H20.6017L17.6869 3.02273H17.596L14.6756 12ZM14.5108 7.42614H20.7381V9.34659H14.5108V7.42614ZM24.4847 12V0.363636H29.0756C29.9544 0.363636 30.7044 0.520833 31.3256 0.835227C31.9506 1.14583 32.426 1.58712 32.7517 2.15909C33.0813 2.72727 33.246 3.39583 33.246 4.16477C33.246 4.9375 33.0794 5.60227 32.746 6.15909C32.4127 6.71212 31.9297 7.13636 31.2972 7.43182C30.6684 7.72727 29.907 7.875 29.0131 7.875H25.9392V5.89773H28.6154C29.085 5.89773 29.4752 5.83333 29.7858 5.70455C30.0964 5.57576 30.3275 5.38258 30.479 5.125C30.6343 4.86742 30.7119 4.54735 30.7119 4.16477C30.7119 3.77841 30.6343 3.45265 30.479 3.1875C30.3275 2.92235 30.0945 2.72159 29.7801 2.58523C29.4695 2.44508 29.0775 2.375 28.604 2.375H26.9449V12H24.4847ZM30.7688 6.70455L33.6608 12H30.9449L28.1154 6.70455H30.7688ZM34.8307 12V0.363636H39.4898C40.3458 0.363636 41.0599 0.49053 41.6318 0.744318C42.2038 0.998106 42.6337 1.35038 42.9216 1.80114C43.2095 2.24811 43.3534 2.76326 43.3534 3.34659C43.3534 3.80114 43.2625 4.20076 43.0807 4.54545C42.8989 4.88636 42.6489 5.16667 42.3307 5.38636C42.0163 5.60227 41.6565 5.75568 41.2512 5.84659V5.96023C41.6943 5.97917 42.1091 6.10417 42.4955 6.33523C42.8856 6.56629 43.2019 6.89015 43.4443 7.30682C43.6868 7.7197 43.808 8.21212 43.808 8.78409C43.808 9.40152 43.6546 9.95265 43.3477 10.4375C43.0447 10.9186 42.5958 11.2992 42.0012 11.5795C41.4065 11.8598 40.6735 12 39.8023 12H34.8307ZM37.2909 9.98864H39.2966C39.9822 9.98864 40.4822 9.85795 40.7966 9.59659C41.111 9.33144 41.2682 8.97917 41.2682 8.53977C41.2682 8.2178 41.1905 7.93371 41.0352 7.6875C40.8799 7.44129 40.6583 7.24811 40.3705 7.10795C40.0864 6.9678 39.7474 6.89773 39.3534 6.89773H37.2909V9.98864ZM37.2909 5.23295H39.1148C39.4519 5.23295 39.7512 5.17424 40.0125 5.05682C40.2777 4.93561 40.486 4.76515 40.6375 4.54545C40.7928 4.32576 40.8705 4.0625 40.8705 3.75568C40.8705 3.33523 40.7208 2.99621 40.4216 2.73864C40.1262 2.48106 39.7057 2.35227 39.1602 2.35227H37.2909V5.23295ZM55.948 6.18182C55.948 7.45076 55.7075 8.5303 55.2264 9.42045C54.7492 10.3106 54.0977 10.9905 53.2719 11.4602C52.4499 11.9261 51.5257 12.1591 50.4992 12.1591C49.4651 12.1591 48.537 11.9242 47.7151 11.4545C46.8931 10.9848 46.2435 10.3049 45.7662 9.41477C45.2889 8.52462 45.0503 7.44697 45.0503 6.18182C45.0503 4.91288 45.2889 3.83333 45.7662 2.94318C46.2435 2.05303 46.8931 1.375 47.7151 0.909091C48.537 0.439394 49.4651 0.204545 50.4992 0.204545C51.5257 0.204545 52.4499 0.439394 53.2719 0.909091C54.0977 1.375 54.7492 2.05303 55.2264 2.94318C55.7075 3.83333 55.948 4.91288 55.948 6.18182ZM53.4537 6.18182C53.4537 5.35985 53.3306 4.66667 53.0844 4.10227C52.842 3.53788 52.4992 3.10985 52.056 2.81818C51.6128 2.52652 51.0939 2.38068 50.4992 2.38068C49.9045 2.38068 49.3855 2.52652 48.9423 2.81818C48.4992 3.10985 48.1545 3.53788 47.9083 4.10227C47.6658 4.66667 47.5446 5.35985 47.5446 6.18182C47.5446 7.00379 47.6658 7.69697 47.9083 8.26136C48.1545 8.82576 48.4992 9.25379 48.9423 9.54545C49.3855 9.83712 49.9045 9.98295 50.4992 9.98295C51.0939 9.98295 51.6128 9.83712 52.056 9.54545C52.4992 9.25379 52.842 8.82576 53.0844 8.26136C53.3306 7.69697 53.4537 7.00379 53.4537 6.18182ZM67.3495 0.363636V12H65.2245L60.162 4.67614H60.0767V12H57.6165V0.363636H59.7756L64.7983 7.68182H64.9006V0.363636H67.3495Z" fill="#94FFAB"/>
<path d="M68.785 2.39205V0.363636H78.3418V2.39205H74.7793V12H72.3475V2.39205H68.785ZM79.7617 12V0.363636H84.3526C85.2314 0.363636 85.9814 0.520833 86.6026 0.835227C87.2276 1.14583 87.703 1.58712 88.0287 2.15909C88.3583 2.72727 88.523 3.39583 88.523 4.16477C88.523 4.9375 88.3564 5.60227 88.023 6.15909C87.6897 6.71212 87.2068 7.13636 86.5742 7.43182C85.9454 7.72727 85.184 7.875 84.2901 7.875H81.2162V5.89773H83.8924C84.3621 5.89773 84.7522 5.83333 85.0628 5.70455C85.3734 5.57576 85.6045 5.38258 85.756 5.125C85.9113 4.86742 85.989 4.54735 85.989 4.16477C85.989 3.77841 85.9113 3.45265 85.756 3.1875C85.6045 2.92235 85.3715 2.72159 85.0571 2.58523C84.7465 2.44508 84.3545 2.375 83.881 2.375H82.2219V12H79.7617ZM86.0458 6.70455L88.9378 12H86.2219L83.3924 6.70455H86.0458ZM92.1134 12H89.477L93.4941 0.363636H96.6645L100.676 12H98.0395L95.1248 3.02273H95.0338L92.1134 12ZM91.9486 7.42614H98.1759V9.34659H91.9486V7.42614ZM106.047 12H101.922V0.363636H106.082C107.252 0.363636 108.26 0.596591 109.104 1.0625C109.949 1.52462 110.599 2.18939 111.053 3.05682C111.512 3.92424 111.741 4.96212 111.741 6.17045C111.741 7.38258 111.512 8.42424 111.053 9.29545C110.599 10.1667 109.945 10.8352 109.093 11.3011C108.244 11.767 107.229 12 106.047 12ZM104.383 9.89205H105.945C106.672 9.89205 107.284 9.76326 107.78 9.50568C108.28 9.24432 108.655 8.84091 108.905 8.29545C109.159 7.74621 109.286 7.03788 109.286 6.17045C109.286 5.31061 109.159 4.60795 108.905 4.0625C108.655 3.51705 108.282 3.11553 107.786 2.85795C107.29 2.60038 106.678 2.47159 105.951 2.47159H104.383V9.89205ZM113.409 12V0.363636H121.25V2.39205H115.869V5.16477H120.847V7.19318H115.869V9.97159H121.273V12H113.409ZM123.052 12V0.363636H127.643C128.522 0.363636 129.272 0.520833 129.893 0.835227C130.518 1.14583 130.993 1.58712 131.319 2.15909C131.649 2.72727 131.813 3.39583 131.813 4.16477C131.813 4.9375 131.647 5.60227 131.313 6.15909C130.98 6.71212 130.497 7.13636 129.865 7.43182C129.236 7.72727 128.474 7.875 127.58 7.875H124.507V5.89773H127.183C127.652 5.89773 128.043 5.83333 128.353 5.70455C128.664 5.57576 128.895 5.38258 129.046 5.125C129.202 4.86742 129.279 4.54735 129.279 4.16477C129.279 3.77841 129.202 3.45265 129.046 3.1875C128.895 2.92235 128.662 2.72159 128.347 2.58523C128.037 2.44508 127.645 2.375 127.171 2.375H125.512V12H123.052ZM129.336 6.70455L132.228 12H129.512L126.683 6.70455H129.336Z" fill="white"/>
</svg>
